<svg width="16" height="16" xmlns="http://www.w3.org/2000/svg" class="bi bi-truck-flatbed">

    <g>
        <title>background</title>
        <rect fill="none" id="canvas_background" height="402" width="582" y="-1" x="-1"/>
    </g>
    <g>
        <title>Layer 1</title>
        <path fill="#a8a8a8" id="svg_1"
              d="m11.60989,4.686813a0.5,0.5 0 0 1 0.5,0.5l0,0.5l1.02,0a1.5,1.5 0 0 1 1.17,0.563l1.481,1.85a1.5,1.5 0 0 1 0.329,0.938l0,2.149a1.5,1.5 0 0 1 -1.5,1.5l-0.5,0a2,2 0 1 1 -4,0l-5,0a2,2 0 1 1 -4,0a1,1 0 0 1 -1,-1l0,-1l11,0l0,-5.5a0.5,0.5 0 0 1 0.5,-0.5zm-8.5,7a1,1 0 1 0 0,2a1,1 0 0 0 0,-2zm9,0a1,1 0 1 0 0,2a1,1 0 0 0 0,-2zm1.732,0l0.768,0a0.5,0.5 0 0 0 0.5,-0.5l0,-2.15a0.5,0.5 0 0 0 -0.11,-0.312l-1.48,-1.85a0.5,0.5 0 0 0 -0.39,-0.188l-1.02,0l0,4a2,2 0 0 1 1.732,1z"/>
    </g>
</svg>